<svg xmlns="http://www.w3.org/2000/svg" width="800" height="500" viewBox="0 0 800 500">
  <!-- Dashboard Background -->
  <rect width="800" height="500" fill="#FFFFFF" rx="10" ry="10"/>
  
  <!-- Header -->
  <rect width="800" height="60" fill="#4a63e7" rx="10" ry="10"/>
  <text x="30" y="38" font-family="Arial" font-size="22" font-weight="bold" fill="white">LeanSim Dashboard</text>
  
  <!-- Side Navigation -->
  <rect x="0" y="60" width="200" height="440" fill="#F8F9FA"/>
  
  <!-- Nav Items -->
  <rect x="20" y="100" width="160" height="40" fill="#4a63e7" rx="5" ry="5"/>
  <text x="60" y="125" font-family="Arial" font-size="14" fill="white">Lean Canvas</text>
  
  <rect x="20" y="150" width="160" height="40" fill="#F0F0F0" rx="5" ry="5"/>
  <text x="60" y="175" font-family="Arial" font-size="14" fill="#555">Financials</text>
  
  <rect x="20" y="200" width="160" height="40" fill="#F0F0F0" rx="5" ry="5"/>
  <text x="60" y="225" font-family="Arial" font-size="14" fill="#555">Results</text>
  
  <rect x="20" y="250" width="160" height="40" fill="#F0F0F0" rx="5" ry="5"/>
  <text x="60" y="275" font-family="Arial" font-size="14" fill="#555">History</text>
  
  <!-- Main Content Area -->
  <rect x="220" y="80" width="560" height="100" fill="#F0F0F0" rx="5" ry="5"/>
  <text x="240" y="120" font-family="Arial" font-size="18" font-weight="bold" fill="#333">Problem Statement</text>
  <rect x="240" y="130" width="520" height="30" fill="#FFFFFF" rx="3" ry="3"/>
  
  <rect x="220" y="190" width="270" height="100" fill="#F0F0F0" rx="5" ry="5"/>
  <text x="240" y="220" font-family="Arial" font-size="16" font-weight="bold" fill="#333">Solution</text>
  <rect x="240" y="230" width="230" height="40" fill="#FFFFFF" rx="3" ry="3"/>
  
  <rect x="510" y="190" width="270" height="100" fill="#F0F0F0" rx="5" ry="5"/>
  <text x="530" y="220" font-family="Arial" font-size="16" font-weight="bold" fill="#333">Customer Segments</text>
  <rect x="530" y="230" width="230" height="40" fill="#FFFFFF" rx="3" ry="3"/>
  
  <rect x="220" y="300" width="560" height="100" fill="#F0F0F0" rx="5" ry="5"/>
  <text x="240" y="330" font-family="Arial" font-size="16" font-weight="bold" fill="#333">Unique Value Proposition</text>
  <rect x="240" y="340" width="520" height="40" fill="#FFFFFF" rx="3" ry="3"/>
  
  <!-- Chart Placeholder -->
  <rect x="220" y="410" width="560" height="70" fill="#4a63e7" rx="5" ry="5" opacity="0.7"/>
  <text x="400" y="450" font-family="Arial" font-size="16" font-weight="bold" fill="white" text-anchor="middle">Financial Metrics Dashboard</text>
  
  <!-- Icons (simplified) -->
  <circle cx="35" cy="120" r="10" fill="white"/>
  <circle cx="35" cy="170" r="10" fill="#666"/>
  <circle cx="35" cy="220" r="10" fill="#666"/>
  <circle cx="35" cy="270" r="10" fill="#666"/>
</svg> 